<?xml version="1.0" encoding="utf-8"?>
<!-- Generator: Adobe Illustrator 16.0.0, SVG Export Plug-In . SVG Version: 6.00 Build 0)  -->
<!DOCTYPE svg PUBLIC "-//W3C//DTD SVG 1.1//EN" "http://www.w3.org/Graphics/SVG/1.1/DTD/svg11.dtd">
<svg version="1.1" id="Layer_1" xmlns="http://www.w3.org/2000/svg" xmlns:xlink="http://www.w3.org/1999/xlink" x="0px" y="0px"
	 width="137.349px" height="69.077px" viewBox="0 0 137.349 69.077" enable-background="new 0 0 137.349 69.077"
	 xml:space="preserve">
<g>
	<path fill="#1B1B1C" d="M58.477,12.029h-5.329v7.201h5.329v0.288h-5.329v14.689h4.896v0.36h-4.896v7.201h2.016v0.36h-2.016v6.913
		h5.473v0.432h-5.473v7.201h6.913v0.288h-6.913V67.69h-0.432V56.961h-7.92v0.432h1.296v0.288h-1.296V67.69h-0.288V57.681h-7.921
		V67.69h-0.432V57.681h-6.48H14.985V67.69h-0.432V57.681h-0.504v-0.288h0.504v-0.432H7.28l-0.648,0.648V67.69H6.344v-9.721
		l-3.24,3.24l-0.288-0.288l3.528-3.457v-0.504H2.312v-0.288h4.032v-7.201H2.312V49.04h4.032v-6.913H1.736v-0.36h4.608v-7.417V19.518
		H1.52v-0.288h4.824v-7.201H1.52v-0.432h4.824V1.948h0.288v9.649h7.921v-0.504h-0.504v-0.432h0.504V1.948h0.432v8.713h31.106v0.432
		H33.491c0.576,0.072,1.44,0.36,2.016,0.504H52.14l0.576-0.576V1.948h0.432v8.713l2.952-3.024l0.288,0.288l-3.24,3.24v0.432h5.329
		V12.029z M11.889,19.229c0.864-1.008,1.656-1.872,2.665-2.736v-4.465H6.632v7.201H11.889z M6.632,30.175
		c0.72-3.96,2.448-7.633,4.896-10.657H6.632V30.175z M14.553,30.247v-0.504l-7.921,4.608c0,0.144,0.072,0.36,0.072,0.504
		L14.553,30.247z M7.497,41.768c-0.36-1.08-0.648-2.16-0.864-3.313v3.313H7.497z M6.632,49.04h4.896
		c-1.656-2.088-2.952-4.392-3.888-6.913H6.632V49.04z M11.889,49.472H6.632v7.201h0.504l5.905-5.977
		C12.609,50.264,12.249,49.904,11.889,49.472z M6.776,56.961H6.632v0.144L6.776,56.961z M14.553,28.446v-0.504l-7.849,4.537v0.576
		L14.553,28.446z M14.553,29.382v-0.504l-7.849,4.537v0.576L14.553,29.382z M14.553,31.183v-0.504l-7.849,4.536v0.504L14.553,31.183
		z M10.809,34.279v-0.072h0.144l3.601-2.16v-0.504l-7.849,4.537c0,0.144,0.072,0.36,0.072,0.504L10.809,34.279z M14.553,27.583
		v-0.504l-7.705,4.464c0,0.216-0.072,0.36-0.072,0.576L14.553,27.583z M11.817,34.567h-0.864l-4.104,2.376v0.504L11.817,34.567z
		 M14.553,26.646v-0.504l-7.561,4.393c0,0.216-0.072,0.36-0.072,0.576L14.553,26.646z M13.401,34.567h-0.936l-5.544,3.24
		c0,0.144,0.072,0.288,0.072,0.432L13.401,34.567z M14.553,25.782v-0.504l-7.417,4.248c-0.072,0.216,0,0.432-0.072,0.648
		L14.553,25.782z M14.553,34.783v-0.216h-0.504l-6.984,4.032c0,0.144,0.072,0.36,0.072,0.504L14.553,34.783z M14.553,35.647v-0.504
		l-7.345,4.249c0,0.144,0.072,0.36,0.144,0.504L14.553,35.647z M14.553,24.846v-0.504l-7.129,4.176
		c-0.072,0.216-0.072,0.36-0.144,0.576L14.553,24.846z M14.553,36.583v-0.504l-7.129,4.104c0.072,0.144,0.072,0.36,0.144,0.504
		L14.553,36.583z M14.553,23.982v-0.504l-6.841,3.96l-0.216,0.648L14.553,23.982z M14.553,37.447v-0.504l-6.913,4.032
		c0.072,0.144,0.072,0.288,0.144,0.432L14.553,37.447z M7.641,56.673h6.913v-4.536c-0.432-0.36-0.864-0.72-1.296-1.152L7.641,56.673
		z M14.553,23.046v-0.504l-6.481,3.744C8,26.502,7.929,26.791,7.856,27.006L14.553,23.046z M14.553,38.383v-0.504l-6.697,3.888
		h0.072h0.792L14.553,38.383z M8,42.127L8.072,42.2l0.072-0.072H8z M8.792,42.127l-0.648,0.36L8.36,42.92l1.296-0.792H8.792z
		 M14.553,22.182v-0.504l-5.977,3.457c-0.072,0.216-0.216,0.504-0.288,0.72L14.553,22.182z M10.305,42.127l-1.872,1.08l0.216,0.432
		l2.592-1.512H10.305z M14.553,21.246v-0.504l-5.4,3.168c-0.144,0.216-0.216,0.504-0.36,0.72L14.553,21.246z M11.889,42.127
		l-3.096,1.8c0.072,0.144,0.072,0.288,0.144,0.432l3.816-2.232H11.889z M13.401,42.127l-4.32,2.521
		c0.072,0.144,0.144,0.216,0.216,0.36l5.041-2.88H13.401z M14.553,39.248v-0.504l-5.185,3.024h0.936L14.553,39.248z M14.553,20.382
		v-0.504l-4.681,2.736c-0.144,0.288-0.288,0.432-0.432,0.72L14.553,20.382z M14.553,42.848v-0.504L9.44,45.296l0.216,0.432
		L14.553,42.848z M14.553,43.784V43.28l-4.681,2.736c0.072,0.144,0.144,0.216,0.216,0.36L14.553,43.784z M13.545,19.518
		l-2.736,1.656c-0.216,0.288-0.36,0.504-0.576,0.792l4.248-2.448H13.545z M14.553,44.648v-0.504l-4.32,2.52
		c0.072,0.144,0.216,0.216,0.288,0.36L14.553,44.648z M14.553,45.584V45.08l-3.889,2.232c0.072,0.144,0.216,0.216,0.288,0.36
		L14.553,45.584z M14.553,40.184v-0.504l-3.601,2.088h0.864L14.553,40.184z M14.553,46.448v-0.504l-3.384,2.016
		c0.072,0.144,0.144,0.216,0.216,0.36L14.553,46.448z M12.033,19.518c-0.288,0.288-0.576,0.72-0.792,1.008l1.656-1.008H12.033z
		 M14.553,32.983v-0.504l-3.024,1.728h0.936L14.553,32.983z M14.553,47.384V46.88l-2.953,1.729c0.072,0.144,0.216,0.216,0.288,0.36
		L14.553,47.384z M14.553,48.248v-0.504l-2.232,1.296h0.864L14.553,48.248z M12.321,49.472l0.072,0.072l0.216-0.072H12.321z
		 M14.553,41.047v-0.504l-2.088,1.224h0.936L14.553,41.047z M14.553,18.078l-1.944,1.152h0.936l1.008-0.648V18.078z M13.257,49.472
		l-0.648,0.288c0.072,0.144,0.288,0.216,0.36,0.36l1.152-0.648H13.257z M14.553,17.142l-0.648,0.432
		c-0.432,0.36-0.864,0.792-1.224,1.224l1.873-1.152V17.142z M14.553,33.847v-0.504l-1.44,0.864h0.936L14.553,33.847z M13.185,50.336
		c0,0.072,0.072,0.072,0.072,0.144l0.432-0.432L13.185,50.336z M14.553,50.048v-0.36l-0.864,0.936L14.553,50.048z M14.553,50.984
		V50.48l-0.792,0.432c0.144,0.144,0.216,0.288,0.36,0.36L14.553,50.984z M14.553,49.04v-0.36l-0.72,0.36H14.553z M14.553,41.768
		v-0.288l-0.504,0.288H14.553z M14.193,19.229h0.36v-0.288L14.193,19.229z M14.553,51.705v-0.36l-0.216,0.144L14.553,51.705z
		 M23.914,11.597c0.576-0.144,1.08-0.432,1.656-0.504H14.985v0.504H23.914z M14.985,16.133c2.232-1.872,4.824-3.24,7.705-4.104
		h-7.705V16.133z M27.514,12.029h-0.936l-11.593,6.697v0.504h0.072L27.514,12.029z M25.066,12.029l-10.081,5.833v0.504l10.945-6.337
		H25.066z M23.986,12.029c-0.288,0.072-0.648,0.144-0.936,0.216l-8.064,4.68v0.576l9.433-5.473H23.986z M40.043,23.766
		c-2.665-2.592-6.337-4.249-10.369-4.249c-8.137,0-14.617,6.625-14.689,14.689H29.53L40.043,23.766z M20.313,22.47
		c1.152-0.864,2.448-1.656,3.816-2.232c0.432-0.216,0.792-0.504,1.224-0.72h-0.936l-9.433,5.544v0.504L20.313,22.47z M23.77,19.518
		h-0.864l-7.92,4.608v0.576L23.77,19.518z M22.258,19.518h-0.936l-6.336,3.745v0.504L22.258,19.518z M20.674,19.518h-0.937
		l-4.752,2.808v0.576L20.674,19.518z M19.089,19.518h-0.864l-3.24,1.944v0.504L19.089,19.518z M17.577,19.518h-0.936l-1.656,1.008
		v0.576L17.577,19.518z M15.993,19.518h-0.864l-0.144,0.144v0.504C15.345,19.95,15.633,19.734,15.993,19.518z M18.082,24.63
		c0.36-0.36,0.648-0.72,1.008-1.08l-4.104,2.376v0.576L18.082,24.63z M16.929,26.214c0.216-0.288,0.36-0.576,0.576-0.864
		l-2.52,1.512v0.504L16.929,26.214z M16.209,27.583c0.144-0.288,0.216-0.576,0.36-0.792l-1.584,0.936v0.576L16.209,27.583z
		 M15.633,28.807c0.072-0.216,0.216-0.504,0.288-0.72l-0.936,0.576v0.504L15.633,28.807z M15.273,29.887l0.216-0.648l-0.504,0.288
		v0.576L15.273,29.887z M15.129,30.319l-0.144,0.144v0.504C15.057,30.75,15.057,30.535,15.129,30.319z M14.985,34.567
		c0.072,2.592,0.792,5.112,2.016,7.201h4.968l7.201-7.201H14.985z M14.985,37.663v0.504l0.072-0.072
		C14.985,37.951,14.985,37.807,14.985,37.663z M15.129,38.455l-0.144,0.072v0.576l0.288-0.216
		C15.201,38.743,15.201,38.599,15.129,38.455z M15.417,39.175l-0.432,0.288v0.504l0.576-0.36
		C15.489,39.463,15.489,39.319,15.417,39.175z M15.633,39.896l-0.648,0.432v0.576l0.864-0.576L15.633,39.896z M16.209,41.047
		l-0.216-0.432l-1.008,0.648v0.504L16.209,41.047z M16.929,42.416c-0.072-0.072-0.072-0.216-0.144-0.288h-0.216l-1.584,0.936v0.504
		L16.929,42.416z M15.921,42.127h-0.936v0.576L15.921,42.127z M17.361,43.063c-0.072-0.144-0.144-0.216-0.216-0.36l-2.16,1.224
		v0.576L17.361,43.063z M17.865,43.712c-0.072-0.144-0.216-0.216-0.288-0.36l-2.592,1.512v0.504L17.865,43.712z M18.37,44.288
		c-0.072-0.144-0.216-0.216-0.288-0.36l-3.096,1.8v0.576L18.37,44.288z M18.874,44.936v-0.072c-0.072-0.144-0.216-0.144-0.288-0.288
		l-3.6,2.088v0.504L18.874,44.936z M16.713,47.024l1.296-1.224l-3.024,1.729v0.576L16.713,47.024z M14.985,48.824l0.864-0.864
		l-0.864,0.504V48.824z M19.45,49.472l-4.464,2.592c0.144,0.072,0.216,0.216,0.36,0.288l5.041-2.88H19.45z M17.938,49.472
		l-2.952,1.656v0.576l3.816-2.232H17.938z M16.353,49.472l-1.368,0.792v0.504l2.304-1.296H16.353z M14.985,49.472v0.432l0.72-0.432
		H14.985z M14.985,56.673h7.705c-2.88-0.864-5.473-2.304-7.705-4.176V56.673z M23.914,56.961h-8.929v0.432H25.57
		C24.994,57.321,24.49,57.105,23.914,56.961z M15.201,16.421l6.265-3.6C19.162,13.685,17.073,14.909,15.201,16.421z M20.746,46.52
		c-0.144-0.072-0.216-0.216-0.36-0.288l-4.969,2.808h0.936L20.746,46.52z M16.569,41.768l-0.216-0.432l-0.72,0.432h0.864H16.569z
		 M21.034,49.472l-5.4,3.096c0.144,0.072,0.216,0.216,0.36,0.288l5.904-3.384H21.034z M29.098,12.029h-0.936l-12.457,7.201h0.936
		L29.098,12.029z M20.098,46.016c-0.144-0.072-0.216-0.288-0.36-0.36l-2.664,1.584l-1.296,1.224L20.098,46.016z M22.546,49.472
		l-6.265,3.601c0.144,0.072,0.288,0.216,0.432,0.288l6.769-3.889H22.546z M21.466,47.024c-0.144-0.072-0.288-0.216-0.432-0.288
		l-4.032,2.304h0.864L21.466,47.024z M24.13,49.472l-7.128,4.104l0.432,0.216l7.561-4.32H24.13z M17.217,42.127
		c0.576,0.936,1.224,1.729,1.944,2.521l2.448-2.521H17.217z M30.61,12.029h-0.864l-12.458,7.201h0.937L30.61,12.029z M25.642,49.472
		l-7.849,4.537c0.144,0.072,0.288,0.216,0.432,0.288l8.353-4.825H25.642z M19.45,45.44c-0.144-0.072-0.144-0.216-0.288-0.288
		l-1.224,1.224L19.45,45.44z M22.258,47.456c-0.144-0.072-0.36-0.216-0.504-0.288l-3.241,1.872h0.937L22.258,47.456z M27.226,49.472
		l-8.713,4.969c0.144,0.072,0.36,0.216,0.504,0.288l9.145-5.256H27.226z M32.195,12.029h-0.937l-12.385,7.201h0.864L32.195,12.029z
		 M19.377,44.864c2.664,2.592,6.265,4.176,10.297,4.176c2.304,0,4.537-0.504,6.48-1.44v-5.473H22.186L19.377,44.864z M28.811,49.472
		l-9.433,5.4c0.144,0.072,0.288,0.216,0.432,0.288l9.865-5.688H28.811z M23.05,47.888c-0.144-0.072-0.36-0.144-0.504-0.216
		l-2.448,1.368h0.864L23.05,47.888z M30.322,49.472l-10.153,5.833c0.144,0.072,0.432,0.144,0.576,0.216l10.513-6.049H30.322z
		 M33.707,12.029h-0.864l-12.457,7.201h0.936L33.707,12.029z M31.907,49.472l-10.801,6.192c0.144,0.072,0.288,0.144,0.504,0.216
		l11.161-6.409H31.907z M23.914,48.248c-0.144-0.072-0.36-0.144-0.504-0.216l-1.8,1.008h0.936L23.914,48.248z M35.291,12.029h-0.936
		L21.97,19.229h0.864L35.291,12.029z M33.419,49.472l-11.377,6.553c0.216,0.072,0.36,0.144,0.576,0.216l11.737-6.769H33.419z
		 M22.546,41.768h13.609v-0.216l-0.144,0.072v-0.36l0.144-0.072v-0.576l-0.144,0.144v-0.36l0.144-0.144v-0.504l-0.144,0.072v-0.36
		l0.144-0.072v-0.576l-0.144,0.144v-0.36l0.144-0.144v-0.504l-0.144,0.072v-0.36l0.144-0.072v-0.576l-0.144,0.144v-0.36l0.144-0.144
		v-0.504l-0.144,0.072v-0.36l0.144-0.072v-0.576l-0.144,0.144v-0.36l0.144-0.144v-0.288h-6.408L22.546,41.768z M35.003,49.472
		L23.05,56.385c0.216,0.072,0.36,0.072,0.576,0.144l12.313-7.057H35.003z M24.85,48.608c-0.216-0.072-0.36-0.072-0.576-0.144
		l-1.08,0.576h0.936L24.85,48.608z M36.371,12.245c-0.216-0.072-0.36-0.072-0.576-0.144l-12.313,7.128h0.936L36.371,12.245z
		 M36.155,49.616L24.13,56.673h0.864l11.161-6.48V49.616z M25.858,48.968c-0.216-0.072-0.36-0.144-0.576-0.216l-0.504,0.288h0.864
		L25.858,48.968z M37.379,12.605c-0.216-0.072-0.36-0.144-0.576-0.216l-11.737,6.84h0.864L37.379,12.605z M26.434,19.518h-0.432
		l-0.36,0.216C25.858,19.662,26.146,19.59,26.434,19.518z M36.155,50.552l-10.513,6.121h0.936l9.577-5.617V50.552z M25.642,56.961
		c0.072,0,0.144,0.072,0.216,0.072l0.072-0.072H25.642z M26.578,56.961l-0.216,0.144c0.216,0,0.576,0.144,0.792,0.144l0.36-0.288
		H26.578z M26.578,11.597l0.72-0.36C26.866,11.309,26.578,11.597,26.578,11.597z M38.315,12.965
		c-0.144-0.072-0.288-0.144-0.504-0.216l-11.233,6.48h0.936L38.315,12.965z M28.09,11.165l-0.864,0.432h0.936l0.936-0.504
		C28.738,11.093,28.45,11.165,28.09,11.165z M36.155,51.417l-8.929,5.256h0.936l7.993-4.68V51.417z M28.162,56.961l-0.504,0.288
		c0.288,0,0.576,0.072,0.864,0.072l0.576-0.36H28.162z M39.179,13.325c-0.144-0.072-0.36-0.144-0.504-0.216l-10.513,6.121h0.936
		L39.179,13.325z M30.034,11.093h-0.288l-0.936,0.504h0.864l1.008-0.504H30.034z M36.155,52.353l-7.344,4.32h0.864l6.48-3.816
		V52.353z M30.61,56.961h-0.864l-0.648,0.36c0.216,0,0.36,0.072,0.576,0.072c0.072,0,0.288-0.072,0.36-0.072L30.61,56.961z
		 M40.043,13.757c-0.144-0.072-0.36-0.216-0.504-0.288l-9.792,5.76h0.864L40.043,13.757z M36.587,28.878v5.329h7.921
		c0-3.96-1.656-7.561-4.249-10.225L30.106,34.207h6.048v-5.329H36.587z M31.258,11.093l-0.936,0.504h0.936l0.864-0.504H31.258z
		 M36.155,53.217l-5.833,3.456h0.936l4.896-2.88V53.217z M32.195,56.961h-0.937l-0.576,0.36c0.36,0,0.648-0.072,1.008-0.072
		L32.195,56.961z M40.907,14.189c-0.144-0.072-0.36-0.216-0.504-0.288l-9.145,5.328h0.937L40.907,14.189z M32.626,11.165
		l-0.72,0.432h0.864l0.432-0.288C32.987,11.309,32.843,11.165,32.626,11.165z M36.155,54.153l-4.248,2.52h0.864l3.384-2.016V54.153z
		 M33.707,56.961h-0.864l-0.36,0.216c0.432-0.072,0.792-0.072,1.224-0.144V56.961z M41.627,14.621
		c-0.144-0.072-0.288-0.216-0.432-0.288l-8.353,4.896h0.864L41.627,14.621z M32.987,19.518l0.072,0.072l0.072-0.072H32.987z
		 M32.987,49.04h0.432l0.288-0.144C33.491,48.968,33.203,48.968,32.987,49.04z M33.419,11.597h0.648l-0.432-0.144L33.419,11.597z
		 M36.155,55.017l-2.736,1.656h0.936l1.8-1.08V55.017z M33.779,19.518l-0.216,0.144c0.216,0.072,0.36,0.144,0.576,0.216l0.504-0.36
		H33.779z M36.155,57.393v-0.432h-0.648c-0.576,0.144-1.08,0.36-1.656,0.432H36.155z M36.155,48.392V47.96l-0.864,0.432
		l-1.224,0.648h0.936L36.155,48.392z M42.419,15.053l-0.432-0.216l-7.632,4.392h0.936L42.419,15.053z M35.291,19.518l-0.72,0.504
		c0.216,0.072,0.36,0.072,0.576,0.144l1.08-0.648H35.291z M35.003,56.673h0.432c0.216-0.072,0.504-0.144,0.72-0.216v-0.504
		L35.003,56.673z M36.875,19.518l-1.368,0.792c0.144,0.072,0.36,0.216,0.504,0.288l1.729-1.08H36.875z M36.155,49.04v-0.288
		l-0.504,0.288H36.155z M43.067,15.557c-0.144-0.072-0.216-0.216-0.36-0.288l-6.769,3.96h0.936L43.067,15.557z M38.387,19.518
		l-2.016,1.224c0.144,0.072,0.36,0.144,0.504,0.216l2.448-1.44H38.387z M44.436,34.567h-0.864l-6.985,4.104v0.504L44.436,34.567z
		 M42.923,34.567H42.06l-5.473,3.168v0.504L42.923,34.567z M41.412,34.567h-0.937l-3.888,2.304v0.504L41.412,34.567z M39.827,34.567
		h-0.936l-2.304,1.368v0.504L39.827,34.567z M38.243,34.567h-0.864c-0.288,0.144-0.504,0.36-0.792,0.504v0.504L38.243,34.567z
		 M36.731,34.567h-0.144v0.072L36.731,34.567z M44.436,35.503v-0.576l-7.849,4.608v0.504L44.436,35.503z M44.292,36.439
		c0-0.216,0.072-0.288,0.072-0.504l-7.777,4.537v0.504L44.292,36.439z M44.147,37.447c0.072-0.216,0.072-0.36,0.072-0.576
		l-7.633,4.464v0.432h0.144L44.147,37.447z M36.587,47.384c2.304-1.224,4.249-3.024,5.617-5.257h-5.617V47.384z M44.508,43.568
		v-0.504l-5.4,3.097c-0.792,0.648-1.584,1.224-2.521,1.656v0.36L44.508,43.568z M44.508,44.504v-0.576l-7.921,4.608v0.504
		L44.508,44.504z M44.508,49.472h-0.216l-7.705,4.464v0.504l7.921-4.537V49.472z M42.779,49.472l-6.192,3.601v0.504l7.129-4.104
		H42.779z M41.195,49.472l-4.608,2.665v0.504l5.544-3.168H41.195z M39.683,49.472l-3.096,1.8v0.504l3.96-2.304H39.683z
		 M38.099,49.472l-1.512,0.864v0.504l2.448-1.368H38.099z M36.587,49.472v0.504l0.864-0.504H36.587z M44.508,50.264l-7.921,4.608
		v0.504l7.921-4.608V50.264z M44.508,51.128l-7.921,4.608v0.504l7.921-4.536V51.128z M44.508,57.393v-0.432h-7.921v0.432H44.508z
		 M36.731,12.029c3.6,1.152,6.769,3.024,9.361,5.617l5.688-5.617H36.731z M36.731,56.673h7.777v-4.176
		C42.275,54.369,39.611,55.809,36.731,56.673z M39.971,19.518l-2.808,1.656c0.144,0.072,0.36,0.216,0.504,0.288l3.24-1.944H39.971z
		 M44.508,45.368v-0.504l-7.345,4.176h0.936L44.508,45.368z M43.859,38.527c0.072-0.216,0.072-0.432,0.144-0.648l-6.625,3.888h0.864
		L43.859,38.527z M43.788,16.062c-0.144-0.072-0.288-0.216-0.432-0.288l-5.833,3.456h0.864L43.788,16.062z M44.292,52.137
		l-6.408,3.744C40.188,55.017,42.419,53.721,44.292,52.137z M41.555,19.518l-3.6,2.088c0.144,0.072,0.288,0.216,0.432,0.288
		l4.032-2.376H41.555z M43.067,19.518l-4.392,2.592c0.144,0.072,0.216,0.216,0.36,0.288l4.968-2.88H43.067z M44.508,46.304v-0.576
		l-5.761,3.312h0.864L44.508,46.304z M43.5,39.679c0.072-0.216,0.144-0.504,0.216-0.72l-4.825,2.808h0.936L43.5,39.679z
		 M44.436,16.565c-0.144-0.072-0.216-0.216-0.36-0.288l-5.041,2.952h0.936L44.436,16.565z M42.419,21.39l1.224-1.224l-4.32,2.448
		c0.144,0.072,0.216,0.288,0.36,0.36L42.419,21.39z M40.259,23.478l1.224-1.224l-1.584,0.936
		C40.043,23.262,40.115,23.334,40.259,23.478z M44.508,47.168v-0.504l-4.249,2.376h0.936L44.508,47.168z M44.508,42.704v-0.576
		l-3.168,1.8c-0.288,0.36-0.648,0.792-1.008,1.152L44.508,42.704z M42.923,40.832c0.144-0.216,0.288-0.504,0.36-0.72l-2.809,1.656
		h0.937L42.923,40.832z M44.796,28.878v5.329h7.92c0-5.544-2.016-10.729-5.329-14.689h-2.664l-4.176,4.249
		c1.944,1.944,3.312,4.464,3.96,7.272v-2.16H44.796z M45.083,17.142c-0.144-0.072-0.216-0.216-0.36-0.288l-4.104,2.376h0.864
		L45.083,17.142z M44.508,48.104v-0.576l-2.665,1.512h0.936L44.508,48.104z M42.923,42.127l-0.432,0.288
		c-0.216,0.288-0.36,0.576-0.576,0.864l1.944-1.152H42.923z M42.419,41.768c0.072-0.144,0.144-0.216,0.216-0.36l-0.576,0.36H42.419z
		 M45.66,17.717c-0.144-0.144-0.216-0.288-0.36-0.36l-3.168,1.872h0.936L45.66,17.717z M44.508,40.328l-1.296,0.72
		c-0.144,0.216-0.216,0.504-0.36,0.72h0.072l1.584-0.864V40.328z M44.508,48.968v-0.504l-1.08,0.576h0.864L44.508,48.968z
		 M44.508,39.463l-0.72,0.36c-0.072,0.216-0.216,0.504-0.288,0.72l1.008-0.576V39.463z M43.572,41.768h0.936v-0.504L43.572,41.768z
		 M44.58,19.229l1.224-1.224l-2.088,1.224H44.58z M44.508,38.527l-0.36,0.216l-0.216,0.648l0.576-0.288V38.527z M44.508,37.663
		h-0.072c-0.072,0.216-0.072,0.36-0.144,0.576l0.216-0.072V37.663z M52.284,34.567h-0.936l-6.552,3.745v0.576L52.284,34.567z
		 M50.7,34.567h-0.936l-4.968,2.88v0.504L50.7,34.567z M49.116,34.567h-0.864l-3.456,1.944v0.576L49.116,34.567z M47.604,34.567
		h-0.936l-1.872,1.08v0.504L47.604,34.567z M46.02,34.567h-0.864l-0.36,0.144v0.576L46.02,34.567z M52.716,35.215v-0.576
		l-7.92,4.608v0.504L52.716,35.215z M52.716,36.151v-0.576l-7.92,4.536v0.576L52.716,36.151z M52.572,37.087
		c0-0.216,0.072-0.36,0.072-0.576l-7.849,4.536v0.504L52.572,37.087z M51.348,42.344c0-0.072,0.072-0.144,0.072-0.216H50.7
		l-5.904,3.384v0.576L51.348,42.344z M50.052,42.127h-0.864l-4.392,2.521v0.504L50.052,42.127z M48.54,42.127h-0.936l-2.808,1.584
		v0.576L48.54,42.127z M46.956,42.127h-0.864l-1.296,0.72v0.504L46.956,42.127z M45.444,42.127h-0.648v0.36L45.444,42.127z
		 M50.844,43.496c0.072-0.216,0.216-0.504,0.288-0.72l-6.336,3.672v0.504L50.844,43.496z M50.268,44.72
		c0.144-0.216,0.216-0.504,0.36-0.72l-5.833,3.312v0.576L50.268,44.72z M49.548,46.016c0.144-0.288,0.288-0.504,0.432-0.792
		l-5.184,3.024v0.504L49.548,46.016z M44.796,56.673h7.92v-7.201h-5.185c-0.864,1.008-1.728,1.8-2.736,2.665V56.673z M45.876,49.472
		l-1.08,0.576v0.504l2.016-1.08H45.876z M44.796,49.472v0.216l0.432-0.216H44.796z M46.74,49.833l-1.944,1.08v0.576l0.72-0.432
		C45.948,50.696,46.38,50.264,46.74,49.833z M48.612,47.456c0.216-0.288,0.36-0.576,0.576-0.864l-4.249,2.448h0.937L48.612,47.456z
		 M47.1,19.229c-0.288-0.36-0.648-0.72-1.008-1.08l-1.008,1.08H47.1z M52.428,38.023c0-0.216,0.072-0.36,0.072-0.576l-7.345,4.32
		h0.864L52.428,38.023z M46.38,17.934c0.432,0.432,0.792,0.864,1.152,1.296h5.185v-7.201h-0.432L46.38,17.934z M47.388,49.04
		c0.288-0.288,0.576-0.576,0.792-0.936l-1.656,0.936H47.388z M52.284,39.031c0.072-0.216,0-0.36,0.072-0.576l-5.688,3.313h0.936
		L52.284,39.031z M52.716,30.175V19.518h-4.824C50.34,22.542,51.996,26.214,52.716,30.175z M47.892,49.04h4.824v-6.913H51.78
		C50.844,44.648,49.548,46.952,47.892,49.04z M51.996,40.111c0.072-0.216,0.072-0.432,0.144-0.648l-3.888,2.304h0.864L51.996,40.111
		z M51.708,41.191l0.216-0.648l-2.16,1.224H50.7L51.708,41.191z M51.492,41.768c0-0.072,0.072-0.072,0.072-0.144l-0.216,0.144
		H51.492z M52.716,41.768v-3.313c-0.216,1.152-0.432,2.232-0.792,3.313H52.716z M52.716,11.597v-0.072l-0.072,0.072H52.716z"/>
	<path fill="#1B1B1C" d="M134.509,12.029h-1.512l-18.074,44.572l0.072,0.072h11.881v0.288H115.14l4.248,10.585l-0.359,0.144
		l-4.248-10.657l-3.961,9.793l0.432,1.224l-0.287,0.144l-0.361-0.864l-0.287,0.648l-0.288-0.144l0.36-1.008l-3.961-9.793
		l-4.176,10.441l-0.36-0.072l4.177-10.441h-11.81l4.249,10.585l-0.361,0.144l-4.248-10.657l-3.96,9.793l0.433,1.224l-0.289,0.144
		l-0.359-0.864l-0.288,0.648l-0.288-0.144l0.359-1.008l-3.96-9.793l-4.177,10.441l-0.359-0.072l4.176-10.441H71.648v-0.288H85.33
		l0.072-0.072l-16.994-41.98l-0.072-0.36l-0.215-0.432l-0.072-0.288l-0.217-0.432l-0.144-0.288l-0.144-0.432L67.4,12.101v-0.072
		h-3.024v-0.432h2.88L63.512,2.38l0.36-0.144l3.745,9.361h7.92l-3.961-9.721l0.361-0.072l3.959,9.793h12.242L84.394,2.38
		l0.359-0.144l3.744,9.361h7.921l-3.96-9.721l0.359-0.072l3.961,9.793h6.768l4.033-9.937l0.359,0.144l-4.031,9.793h7.92l3.889-9.505
		l0.287,0.144l-3.744,9.361h12.17l4.032-9.937l0.36,0.144l-4.033,9.793h7.921l3.889-9.505l0.288,0.144l-3.744,9.361h1.367V12.029z
		 M68.264,12.029l-0.433,0.216l0.217,0.432l1.08-0.648H68.264z M69.777,12.029l-1.585,0.937l0.144,0.432l2.377-1.368H69.777z
		 M71.361,12.029l-2.881,1.656l0.145,0.432l3.672-2.088H71.361z M72.945,12.029l-4.177,2.376l0.144,0.432l4.896-2.809H72.945z
		 M74.457,12.029l-5.4,3.097l0.145,0.432l6.191-3.528H74.457z M75.896,12.605l-0.144-0.432l-6.408,3.672l0.144,0.432L75.896,12.605z
		 M76.185,13.325l-0.145-0.432l-6.408,3.672l0.145,0.432L76.185,13.325z M76.472,14.045l-0.144-0.432l-6.409,3.744l0.145,0.36
		L76.472,14.045z M76.761,14.765l-0.145-0.432l-6.408,3.745l0.216,0.432L76.761,14.765z M77.121,15.485l-0.216-0.432l-6.409,3.744
		l0.217,0.432L77.121,15.485z M77.409,16.206l-0.216-0.432l-6.408,3.744L71,19.95L77.409,16.206z M77.697,16.925l-0.216-0.36
		l-6.409,3.672l0.217,0.432L77.697,16.925z M77.985,17.717l-0.216-0.432l-6.337,3.672l0.144,0.432L77.985,17.717z M78.273,18.438
		l-0.145-0.432l-6.408,3.672l0.145,0.432L78.273,18.438z M78.561,19.158l-0.144-0.432l-6.409,3.672l0.144,0.432L78.561,19.158z
		 M78.849,19.878l-0.145-0.432l-6.408,3.744l0.145,0.432L78.849,19.878z M79.136,20.598l-0.143-0.432l-6.409,3.745l0.144,0.432
		L79.136,20.598z M79.425,21.318l-0.145-0.432l-6.408,3.744l0.145,0.432L79.425,21.318z M79.712,22.038l-0.144-0.432l-6.408,3.744
		l0.144,0.432L79.712,22.038z M80.001,22.83l-0.145-0.432l-6.408,3.672l0.216,0.432L80.001,22.83z M80.361,23.55l-0.216-0.432
		l-6.409,3.672l0.217,0.432L80.361,23.55z M80.649,24.27l-0.216-0.432l-6.408,3.672l0.216,0.432L80.649,24.27z M80.937,24.99
		l-0.216-0.432l-6.409,3.744l0.217,0.36L80.937,24.99z M81.225,25.71l-0.216-0.432l-6.337,3.744l0.144,0.432L81.225,25.71z
		 M81.513,26.43l-0.145-0.432l-6.408,3.745l0.145,0.432L81.513,26.43z M81.801,27.15l-0.144-0.432l-6.409,3.744l0.144,0.432
		L81.801,27.15z M82.089,27.871l-0.145-0.36l-6.408,3.672l0.145,0.432L82.089,27.871z M82.377,28.663l-0.144-0.432l-6.409,3.672
		l0.144,0.432L82.377,28.663z M95.338,29.599l-0.071-0.288l-0.217-0.432l-0.072-0.288l-0.216-0.432l-0.144-0.36h0.072l-0.217-0.36
		l-0.145-0.36l-0.144-0.432l-0.144-0.288l-0.145-0.432l-0.144-0.288l-0.144-0.432l-0.145-0.288l-0.145-0.432l-0.144-0.288
		l-0.144-0.432l-0.145-0.288l-0.145-0.432l-0.144-0.288v-0.072l-0.144-0.36h-0.072l-0.072-0.36l-0.216-0.432l-0.072-0.288
		l-0.216-0.432l-0.072-0.288l-0.216-0.432l-0.071-0.288l-0.217-0.432l-0.145-0.288l-0.144-0.432l-0.144-0.288l-0.145-0.432
		l-0.144-0.288l-0.144-0.432l-0.145-0.36l-0.145-0.36l-0.144-0.36l-0.144-0.432l-0.145-0.288l-0.145-0.432l-0.144-0.288
		l-0.144-0.432l-0.145-0.288l-0.216-0.432l-0.072-0.288l-0.216-0.432l-0.072-0.288l-0.216-0.432v-0.072H76.041l13.682,33.843
		l6.12-15.122l-0.144-0.432h-0.072l-0.072-0.288L95.338,29.599z M82.666,29.382l-0.145-0.432l-6.408,3.672l0.145,0.432
		L82.666,29.382z M82.953,30.103l-0.144-0.432l-6.408,3.672l0.144,0.432L82.953,30.103z M83.242,30.823l-0.145-0.432l-6.408,3.744
		l0.216,0.36L83.242,30.823z M83.601,31.542l-0.216-0.432l-6.409,3.744l0.217,0.432L83.601,31.542z M83.889,32.263l-0.216-0.432
		l-6.408,3.745l0.216,0.432L83.889,32.263z M84.177,32.983l-0.216-0.432l-6.409,3.744l0.217,0.432L84.177,32.983z M84.465,33.703
		l-0.216-0.36l-6.408,3.672l0.215,0.432L84.465,33.703z M84.753,34.495l-0.145-0.432l-6.408,3.672l0.145,0.432L84.753,34.495z
		 M85.042,35.215l-0.144-0.432l-6.409,3.672l0.144,0.432L85.042,35.215z M85.33,35.935l-0.145-0.432l-6.408,3.672l0.145,0.432
		L85.33,35.935z M85.618,36.655l-0.144-0.432l-6.409,3.744l0.144,0.432L85.618,36.655z M85.906,37.375l-0.145-0.432l-6.408,3.744
		l0.145,0.432L85.906,37.375z M86.193,38.095l-0.143-0.432l-6.409,3.745l0.144,0.432L86.193,38.095z M86.482,38.815l-0.145-0.36
		l-6.408,3.672l0.216,0.432L86.482,38.815z M86.841,39.607l-0.216-0.432l-6.408,3.672l0.216,0.432L86.841,39.607z M87.13,40.328
		l-0.217-0.432l-6.408,3.672L80.721,44L87.13,40.328z M87.417,41.047l-0.216-0.432l-6.409,3.672l0.217,0.432L87.417,41.047z
		 M87.706,41.768l-0.216-0.432l-6.408,3.745l0.216,0.36L87.706,41.768z M87.994,42.488l-0.145-0.432L81.441,45.8l0.145,0.432
		L87.994,42.488z M88.282,43.208l-0.144-0.432l-6.409,3.744l0.144,0.432L88.282,43.208z M88.57,43.928l-0.145-0.432l-6.408,3.745
		l0.145,0.432L88.57,43.928z M88.858,44.648l-0.144-0.36l-6.409,3.672l0.144,0.432L88.858,44.648z M89.146,45.44l-0.145-0.432
		l-6.408,3.672l0.145,0.432L89.146,45.44z M89.434,46.16l-0.144-0.432L82.881,49.4l0.144,0.432L89.434,46.16z M89.146,47.24
		l0.288-0.72l-6.265,3.6l0.145,0.432L89.146,47.24z M88.714,48.392l0.287-0.72l-5.544,3.241l0.216,0.432L88.714,48.392z
		 M88.21,49.544l0.287-0.648l-4.752,2.736l0.216,0.432L88.21,49.544z M87.778,50.769l0.216-0.72l-3.961,2.304l0.217,0.432
		L87.778,50.769z M87.273,51.92l0.289-0.72l-3.24,1.873l0.216,0.432L87.273,51.92z M86.769,53.073l0.289-0.648l-2.377,1.368
		l0.145,0.432L86.769,53.073z M86.337,54.225l0.288-0.648l-1.656,0.936l0.144,0.432L86.337,54.225z M85.833,55.449l0.288-0.72
		l-0.864,0.504l0.145,0.432L85.833,55.449z M91.955,52.28l-5.833,3.384l-0.216,0.648l6.192-3.601L91.955,52.28z M89.722,66.394
		l3.744-9.433h-0.36v0.072h-0.647v-0.072h-0.864l-0.072,0.072h-0.647l0.071-0.072h-0.937v0.072l-0.287-0.072h-3.816L89.722,66.394z
		 M92.386,53.433L92.242,53l-6.264,3.672h0.863L92.386,53.433z M91.666,51.561l-5.04,2.88l-0.288,0.72l5.473-3.168L91.666,51.561z
		 M91.378,50.84l-4.248,2.448l-0.289,0.648l4.681-2.664L91.378,50.84z M91.018,50.12l-3.456,2.017l-0.289,0.648l3.961-2.232
		L91.018,50.12z M92.674,54.153l-0.144-0.432l-5.041,2.952h0.936L92.674,54.153z M90.73,49.328l-2.664,1.584l-0.288,0.72
		l3.168-1.872L90.73,49.328z M90.442,48.608l-1.944,1.152l-0.216,0.648l2.376-1.368L90.442,48.608z M88.642,12.029l0.144,0.288
		l0.576-0.288H88.642z M90.154,47.888l-1.152,0.72l-0.287,0.648l1.656-0.936L90.154,47.888z M90.009,12.029l-1.08,0.576l0.145,0.432
		l1.872-1.008H90.009z M92.962,54.873l-0.145-0.432l-3.744,2.232h0.936L92.962,54.873z M91.594,12.029l-2.376,1.296l0.144,0.432
		l3.097-1.729H91.594z M89.866,47.168l-0.36,0.216l-0.287,0.72l0.863-0.504L89.866,47.168z M93.106,12.029l-3.601,2.088l0.145,0.432
		l4.393-2.521H93.106z M89.722,46.808L89.65,46.88h0.072V46.808z M94.691,12.029l-4.896,2.809l0.144,0.432l5.616-3.241H94.691z
		 M99.947,40.976l-0.145-0.432l-9.864,5.688v0.072l0.144,0.36L99.947,40.976z M96.634,12.245l-0.072-0.216h-0.359l-6.121,3.528
		l0.217,0.432L96.634,12.245z M99.515,39.823l-9.073,5.257l-0.288,0.648l9.505-5.473L99.515,39.823z M99.515,42.127l0.287-0.72
		l-9.576,5.616l0.145,0.36L99.515,42.127z M96.995,12.965l-0.216-0.432l-6.408,3.744l0.215,0.432L96.995,12.965z M99.011,43.28
		l0.287-0.648l-8.784,5.112l0.144,0.432L99.011,43.28z M97.283,13.757l-0.217-0.432l-6.408,3.672l0.217,0.432L97.283,13.757z
		 M99.226,39.104l-8.352,4.752l-0.217,0.72l8.713-5.04L99.226,39.104z M93.322,55.593l-0.216-0.36l-2.448,1.44h0.864L93.322,55.593z
		 M98.579,44.432l0.288-0.648l-8.064,4.681l0.144,0.432L98.579,44.432z M97.57,14.477l-0.215-0.432l-6.409,3.672l0.216,0.432
		L97.57,14.477z M98.939,38.312l-7.561,4.392l-0.289,0.72l7.993-4.681L98.939,38.312z M98.075,45.656l0.288-0.72l-7.273,4.248
		l0.145,0.432L98.075,45.656z M97.859,15.197l-0.217-0.432l-6.408,3.672l0.217,0.432L97.859,15.197z M97.642,46.808l0.217-0.648
		l-6.48,3.744l0.144,0.432L97.642,46.808z M98.146,15.917l-0.144-0.432l-6.408,3.744l0.144,0.36L98.146,15.917z M98.579,37.591
		l-6.696,3.96L91.594,42.2l7.2-4.176L98.579,37.591z M97.138,47.96l0.289-0.648l-5.762,3.313l0.145,0.432L97.138,47.96z
		 M98.435,16.637l-0.145-0.432l-6.408,3.744l0.144,0.432L98.435,16.637z M96.634,49.184l0.288-0.72l-4.968,2.88l0.144,0.432
		L96.634,49.184z M98.291,36.871l-5.977,3.457l-0.288,0.72l6.481-3.744L98.291,36.871z M98.722,17.357l-0.144-0.432l-6.409,3.745
		l0.145,0.432L98.722,17.357z M93.611,56.385l-0.217-0.432l-1.225,0.72h0.937L93.611,56.385z M96.203,50.336l0.287-0.648
		l-4.248,2.376l0.217,0.432L96.203,50.336z M99.011,18.078l-0.145-0.432l-6.408,3.744l0.144,0.432L99.011,18.078z M98.002,36.151
		l-5.185,3.024l-0.287,0.72l5.688-3.313L98.002,36.151z M95.699,51.488l0.287-0.648l-3.455,2.016l0.215,0.432L95.699,51.488z
		 M99.298,18.797l-0.144-0.36l-6.409,3.672l0.145,0.432L99.298,18.797z M95.267,52.712l0.287-0.72l-2.736,1.584l0.217,0.432
		L95.267,52.712z M99.587,19.59l-0.145-0.432l-6.408,3.672l0.144,0.432L99.587,19.59z M97.714,35.431l-4.465,2.592l-0.215,0.648
		l4.896-2.808L97.714,35.431z M94.762,53.865l0.288-0.648l-1.944,1.08l0.216,0.432L94.762,53.865z M99.875,20.31l-0.144-0.432
		l-6.409,3.672l0.145,0.432L99.875,20.31z M94.258,55.017c0.071-0.216,0.216-0.432,0.288-0.648c-0.36,0.216-0.792,0.432-1.152,0.648
		l0.217,0.432L94.258,55.017z M97.427,34.711l-3.673,2.088l-0.288,0.72l4.104-2.376L97.427,34.711z M99.587,21.39l0.287-0.72
		l-6.264,3.6l0.215,0.432L99.587,21.39z M93.898,56.097l0.217-0.576l-0.36,0.216L93.898,56.097z M99.155,22.542l0.288-0.72
		l-5.545,3.24l0.217,0.36L99.155,22.542z M97.138,33.991l-2.88,1.656l-0.288,0.72l3.313-1.944L97.138,33.991z M100.163,41.479
		l-6.12,15.122l0.072,0.072h12.097l0.071-0.072L100.163,41.479z M98.651,23.694c0.071-0.216,0.216-0.432,0.288-0.648l-4.753,2.736
		l0.216,0.432L98.651,23.694z M96.851,33.271l-2.16,1.224l-0.289,0.648l2.593-1.512L96.851,33.271z M98.218,24.846l0.289-0.648
		l-4.033,2.304l0.217,0.432L98.218,24.846z M97.714,26.07l0.288-0.72l-3.168,1.872l0.144,0.432L97.714,26.07z M96.562,32.479
		l-1.367,0.792l-0.289,0.72l1.801-1.08L96.562,32.479z M97.21,27.222l0.288-0.648l-2.376,1.368l0.145,0.432L97.21,27.222z
		 M96.779,28.375l0.287-0.648l-1.656,0.936l0.145,0.432L96.779,28.375z M96.275,31.759l-0.648,0.36l-0.217,0.72l1.009-0.648
		L96.275,31.759z M96.275,29.599l0.287-0.72c-0.287,0.144-0.576,0.36-0.863,0.504l0.144,0.432L96.275,29.599z M96.058,31.183
		l-0.216,0.432l0.288-0.144L96.058,31.183z M96.058,30.247l0.072-0.144l-0.145,0.072L96.058,30.247z M102.828,27.583l-0.145-0.432
		l-6.408,3.744l0.144,0.432L102.828,27.583z M102.395,26.43l-5.761,3.313l-0.287,0.72l6.191-3.6L102.395,26.43z M103.115,28.302
		l-0.144-0.432l-6.409,3.744l0.145,0.432L103.115,28.302z M102.107,25.71l-5.041,2.88l-0.287,0.72l5.473-3.168L102.107,25.71z
		 M103.475,29.022l-0.216-0.432l-6.408,3.745l0.215,0.432L103.475,29.022z M100.163,20.021l3.24-7.993h-6.48L100.163,20.021z
		 M103.763,29.743l-0.217-0.36l-6.408,3.672l0.217,0.432L103.763,29.743z M101.819,24.99l-4.249,2.448l-0.287,0.648l4.68-2.664
		L101.819,24.99z M104.051,30.535l-0.216-0.432l-6.408,3.672l0.215,0.432L104.051,30.535z M103.763,31.542l0.288-0.72l-6.337,3.672
		l0.217,0.432L103.763,31.542z M101.531,24.27l-3.528,2.016l-0.216,0.648l3.889-2.232L101.531,24.27z M103.332,32.695l0.287-0.648
		l-5.544,3.168l0.144,0.432L103.332,32.695z M101.171,23.478l-2.664,1.584l-0.289,0.72l3.168-1.872L101.171,23.478z M102.828,33.919
		l0.287-0.72l-4.752,2.809l0.145,0.36L102.828,33.919z M102.395,35.071l0.216-0.72l-3.96,2.376l0.144,0.432L102.395,35.071z
		 M100.882,22.758l-1.871,1.152l-0.289,0.648c0.793-0.432,1.584-0.936,2.377-1.368L100.882,22.758z M101.891,36.223l0.288-0.648
		l-3.24,1.872l0.144,0.432L101.891,36.223z M100.595,22.038l-1.152,0.72l-0.288,0.648l1.656-0.936L100.595,22.038z M101.386,37.447
		l0.289-0.72l-2.449,1.44l0.145,0.432L101.386,37.447z M100.955,38.599l0.288-0.72l-1.728,1.008l0.144,0.432L100.955,38.599z
		 M100.306,21.318l-0.359,0.216l-0.288,0.72l0.864-0.504L100.306,21.318z M100.451,39.751l0.288-0.648l-0.937,0.504l0.145,0.432
		L100.451,39.751z M100.163,20.958l-0.071,0.072h0.144L100.163,20.958z M100.163,40.543l0.072-0.288l-0.144,0.072L100.163,40.543z
		 M110.459,15.053l0.288-0.648l-10.369,5.977v0.072l0.145,0.36L110.459,15.053z M106.787,37.375l-6.408,3.672l0.217,0.432
		l6.408-3.672L106.787,37.375z M106.5,36.655l-5.688,3.312l-0.288,0.648l6.121-3.528L106.5,36.655z M111.179,13.253l-10.297,5.977
		l-0.287,0.648l10.297-5.977L111.179,13.253z M109.956,16.277l0.288-0.72l-9.576,5.617l0.144,0.36L109.956,16.277z M107.076,38.095
		l-6.408,3.744l0.215,0.432l6.409-3.744L107.076,38.095z M109.523,17.43l0.217-0.648l-8.785,5.113l0.145,0.432L109.523,17.43z
		 M106.211,35.935l-4.969,2.88l-0.288,0.648l5.4-3.096L106.211,35.935z M107.363,38.815l-6.408,3.744l0.217,0.432l6.408-3.744
		L107.363,38.815z M111.683,12.029l-10.297,5.977l-0.287,0.72l10.297-5.977L111.683,12.029z M109.019,18.582l0.289-0.648
		l-8.065,4.68l0.144,0.432L109.019,18.582z M107.652,39.536l-6.337,3.744l0.144,0.432l6.409-3.745L107.652,39.536z M105.923,35.215
		l-4.176,2.376l-0.289,0.72l4.609-2.736L105.923,35.215z M110.244,12.029l-8.425,4.825l-0.288,0.648l9.577-5.473H110.244z
		 M108.515,19.806l0.289-0.72l-7.273,4.249l0.145,0.432L108.515,19.806z M108.011,40.255L101.603,44l0.145,0.432l6.408-3.744
		L108.011,40.255z M108.083,20.958l0.288-0.648l-6.553,3.745l0.144,0.432L108.083,20.958z M105.635,34.423l-3.456,2.016l-0.288,0.72
		l3.888-2.304L105.635,34.423z M108.299,41.047l-6.408,3.672l0.144,0.432l6.408-3.672L108.299,41.047z M108.66,12.029l-6.337,3.672
		l-0.288,0.648l7.561-4.321H108.66z M107.58,22.11l0.288-0.648l-5.761,3.312l0.145,0.432L107.58,22.11z M108.587,41.768
		l-6.408,3.672l0.144,0.432l6.409-3.672L108.587,41.768z M107.148,23.334l0.215-0.72l-4.968,2.88l0.216,0.432L107.148,23.334z
		 M105.347,33.703l-2.664,1.584l-0.288,0.648l3.097-1.8L105.347,33.703z M107.076,12.029l-4.32,2.448l-0.289,0.72l5.545-3.168
		H107.076z M108.875,42.488l-6.409,3.672l0.145,0.432l6.408-3.672L108.875,42.488z M106.644,24.486l0.287-0.648l-4.248,2.376
		l0.216,0.432L106.644,24.486z M109.164,43.208l-6.408,3.745l0.144,0.36l6.409-3.672L109.164,43.208z M105.059,32.983l-1.944,1.08
		l-0.216,0.72l2.304-1.368L105.059,32.983z M105.564,12.029l-2.305,1.296l-0.288,0.72l3.456-2.017H105.564z M106.139,25.638
		l0.288-0.648l-3.456,2.016l0.216,0.432L106.139,25.638z M109.452,43.928l-6.409,3.744c0.072,0.144,0.072,0.288,0.145,0.432
		l6.408-3.744L109.452,43.928z M105.707,26.862l0.289-0.72l-2.736,1.584l0.216,0.432L105.707,26.862z M104.771,32.263l-1.152,0.648
		l-0.287,0.72l1.584-0.936L104.771,32.263z M109.74,44.648l-6.408,3.744l0.215,0.432l6.338-3.744L109.74,44.648z M103.979,12.029
		l-0.216,0.144l-0.288,0.648l1.44-0.792H103.979z M105.203,28.014l0.289-0.72l-1.945,1.152l0.217,0.432
		C104.267,28.59,104.699,28.302,105.203,28.014z M110.028,45.368l-6.409,3.745l0.217,0.432l6.408-3.745L110.028,45.368z
		 M104.412,31.542l-0.289,0.216l-0.287,0.648l0.791-0.432L104.412,31.542z M104.771,29.167l0.217-0.648l-1.08,0.648l0.144,0.432
		L104.771,29.167z M110.388,46.304l-0.072-0.144l-6.408,3.672l0.215,0.432l6.121-3.6L110.388,46.304z M104.339,30.247l0.216-0.576
		c-0.144,0.072-0.216,0.144-0.36,0.216L104.339,30.247z M110.028,47.168l-5.833,3.384l0.217,0.432l5.4-3.096L110.028,47.168z
		 M104.339,31.183l-0.072,0.072h0.072V31.183z M124.285,12.029h-12.169l-7.489,18.362l-0.071,0.144l-0.071,0.216l6.119,15.122
		L124.285,12.029z M109.595,48.392l-5.04,2.88l0.144,0.432l4.609-2.665L109.595,48.392z M109.091,49.544l-4.248,2.448l0.145,0.432
		l3.816-2.232L109.091,49.544z M108.66,50.696l-3.528,2.088l0.144,0.36l3.097-1.728L108.66,50.696z M108.156,51.92l-2.736,1.584
		l0.145,0.432l2.304-1.368L108.156,51.92z M107.652,53.073c-0.648,0.36-1.297,0.792-1.945,1.152l0.145,0.432
		c0.504-0.288,1.08-0.648,1.584-0.936L107.652,53.073z M107.219,54.225c-0.433,0.216-0.792,0.504-1.224,0.72l0.144,0.432
		l0.792-0.432L107.219,54.225z M106.283,55.665l0.145,0.432l0.288-0.72L106.283,55.665z M113.125,53.145l-0.145-0.432l-6.193,3.601
		l-0.143,0.288v0.072h0.432L113.125,53.145z M112.62,57.033l0.072-0.072h-0.937v0.072h-0.647v-0.072h-0.864l-0.072,0.072h-0.648
		l0.072-0.072h-0.936v0.072h-0.648v-0.072h-0.936v0.072h-0.217l3.744,9.361l3.745-9.361h-0.144v-0.072h-0.865l-0.071,0.072H112.62z
		 M112.692,51.993l-5.473,3.096l-0.288,0.72l5.904-3.384L112.692,51.993z M112.404,51.2l-4.68,2.736l-0.289,0.72l5.113-3.024
		L112.404,51.2z M113.484,53.865l-0.216-0.432l-5.544,3.24h0.936L113.484,53.865z M112.116,50.48l-3.888,2.304l-0.289,0.648
		l4.32-2.52L112.116,50.48z M111.828,49.76l-3.168,1.8l-0.288,0.72l3.601-2.088L111.828,49.76z M111.54,49.04l-2.376,1.368
		l-0.288,0.72l2.808-1.656L111.54,49.04z M111.251,48.32l-1.656,0.936l-0.287,0.648l2.088-1.152L111.251,48.32z M113.772,54.584
		l-0.216-0.432l-4.248,2.52h0.863L113.772,54.584z M110.892,47.6l-0.793,0.432l-0.287,0.72l1.296-0.72L110.892,47.6z M110.603,46.88
		h-0.071l-0.216,0.72l0.504-0.288L110.603,46.88z M121.044,40.399l0.288-0.648l-10.297,5.977l-0.216,0.576v0.072L121.044,40.399z
		 M114.06,55.305l-0.217-0.432l-3.023,1.8h0.936L114.06,55.305z M120.613,41.624l0.287-0.72l-9.936,5.761l0.144,0.432
		L120.613,41.624z M121.836,38.599l-10.297,5.977l-0.288,0.648l10.297-5.977L121.836,38.599z M120.109,42.776l0.287-0.648
		l-9.145,5.257l0.145,0.432L120.109,42.776z M119.676,43.928l0.288-0.648l-8.425,4.824l0.144,0.432L119.676,43.928z M122.341,37.375
		l-10.369,5.977l-0.289,0.72l10.369-5.977L122.341,37.375z M119.172,45.152l0.288-0.72l-7.633,4.464l0.145,0.36L119.172,45.152z
		 M118.74,46.304l0.217-0.72l-6.841,4.032l0.144,0.432L118.74,46.304z M122.773,36.223L112.476,42.2l-0.288,0.648l10.297-5.977
		L122.773,36.223z M118.236,47.456l0.289-0.648l-6.121,3.528l0.216,0.432L118.236,47.456z M114.348,56.025l-0.216-0.432l-1.729,1.08
		h0.864L114.348,56.025z M123.277,35.071l-10.369,5.977l-0.216,0.648l10.297-5.977L123.277,35.071z M117.732,48.68l0.289-0.72
		l-5.329,3.096l0.216,0.432L117.732,48.68z M117.3,49.833l0.288-0.72l-4.608,2.664l0.216,0.432L117.3,49.833z M123.708,33.847
		l-10.297,5.977l-0.287,0.72l10.297-5.977L123.708,33.847z M116.796,50.984l0.288-0.648l-3.816,2.16l0.216,0.432L116.796,50.984z
		 M124.212,32.695l-10.297,5.977l-0.287,0.648l10.297-5.977L124.212,32.695z M116.365,52.208l0.215-0.72l-2.951,1.729l0.144,0.432
		L116.365,52.208z M115.861,53.361l0.287-0.72l-2.232,1.296l0.145,0.432L115.861,53.361z M114.564,56.673v-0.072l-0.072-0.288
		l-0.576,0.36H114.564z M124.716,31.542l-10.368,5.977l-0.288,0.648l10.369-5.977L124.716,31.542z M115.356,54.513
		c0.072-0.216,0.216-0.432,0.288-0.648l-1.439,0.864l0.144,0.36C114.708,54.873,114.996,54.729,115.356,54.513z M114.923,55.737
		l0.289-0.72l-0.721,0.432l0.145,0.432L114.923,55.737z M125.149,30.319l-10.297,5.976l-0.288,0.72l10.297-5.977L125.149,30.319z
		 M125.653,29.167l-10.368,5.977l-0.217,0.648l10.297-5.904L125.653,29.167z M126.085,28.014l-10.297,5.977l-0.289,0.648
		l10.297-5.977L126.085,28.014z M126.589,26.791l-10.297,5.976l-0.289,0.72l10.298-5.977L126.589,26.791z M127.093,25.638
		l-10.369,5.977l-0.288,0.72l10.369-5.977L127.093,25.638z M127.525,24.486l-10.297,5.976l-0.287,0.648l10.297-5.977L127.525,24.486
		z M128.029,23.262l-10.369,5.976l-0.215,0.72l10.297-5.977L128.029,23.262z M128.461,22.11l-10.297,5.977l-0.288,0.72l10.297-5.977
		L128.461,22.11z M128.965,20.958l-10.297,5.976l-0.288,0.648l10.297-5.977L128.965,20.958z M129.398,19.734l-10.297,5.977
		l-0.289,0.72l10.369-5.977L129.398,19.734z M129.902,18.582l-10.297,5.977l-0.289,0.72l10.297-5.977L129.902,18.582z
		 M130.406,17.43l-10.369,5.976l-0.217,0.648l10.297-5.977L130.406,17.43z M130.837,16.277l-10.297,5.905l-0.288,0.72l10.297-5.977
		L130.837,16.277z M131.341,15.053l-10.297,5.977l-0.288,0.72l10.297-5.977L131.341,15.053z M131.773,13.901l-10.297,5.977
		l-0.287,0.648l10.369-5.977L131.773,13.901z M132.277,12.749l-10.297,5.977l-0.287,0.648l10.297-5.977L132.277,12.749z
		 M132.566,12.029h-0.576l-9.577,5.473l-0.216,0.72l10.297-5.977L132.566,12.029z M130.406,12.029l-7.488,4.321l-0.289,0.648
		l8.713-4.969H130.406z M128.893,12.029l-5.472,3.168l-0.289,0.648l6.625-3.816H128.893z M127.309,12.029l-3.456,1.944l-0.288,0.72
		l4.681-2.665H127.309z M125.725,12.029l-1.368,0.792l-0.288,0.648l2.593-1.44H125.725z M124.645,12.029l-0.072,0.288l0.505-0.288
		H124.645z"/>
</g>
</svg>
